<svg width="86" height="55" viewBox="0 0 86 55" fill="none" xmlns="http://www.w3.org/2000/svg">
<circle cx="63.5" cy="22.5" r="22.5" fill="#53C1FF"/>
<path d="M9.39755 51.1925C9.47159 51.5047 9.60802 51.7987 9.79864 52.0568C9.98925 52.3149 10.2301 52.5317 10.5067 52.6943C10.7833 52.8569 11.09 52.9618 11.4082 53.0028C11.7264 53.0438 12.0497 53.02 12.3584 52.9328C26.5162 49.0238 41.4683 49.0224 55.6268 52.9287C55.9355 53.0158 56.2586 53.0396 56.5767 52.9986C56.8948 52.9576 57.2013 52.8527 57.4778 52.6902C57.7544 52.5277 57.9952 52.311 58.1858 52.0531C58.3764 51.7951 58.5129 51.5013 58.587 51.1892L66.154 19.0326C66.2553 18.6022 66.2344 18.1519 66.0936 17.7327C65.9529 17.3135 65.6978 16.9418 65.3573 16.6597C65.0167 16.3776 64.6042 16.1961 64.166 16.1358C63.7279 16.0755 63.2817 16.1387 62.8775 16.3183L47.8605 22.9926C47.3182 23.2336 46.7054 23.2629 46.1426 23.0746C45.5799 22.8864 45.108 22.4944 44.8198 21.9757L36.0761 6.23704C35.8704 5.8668 35.5695 5.55829 35.2044 5.3435C34.8394 5.12871 34.4235 5.01544 34 5.01544C33.5764 5.01544 33.1606 5.12871 32.7956 5.3435C32.4305 5.55829 32.1296 5.8668 31.9239 6.23704L23.1802 21.9757C22.892 22.4944 22.4201 22.8864 21.8573 23.0746C21.2946 23.2628 20.6817 23.2336 20.1395 22.9926L5.12016 16.3173C4.71611 16.1377 4.26995 16.0745 3.83192 16.1348C3.39388 16.195 2.98137 16.3764 2.64081 16.6584C2.30026 16.9404 2.04519 17.3119 1.90433 17.731C1.76346 18.1501 1.7424 18.6002 1.8435 19.0307L9.39755 51.1925Z" stroke="black" stroke-width="2" stroke-linecap="round" stroke-linejoin="round"/>
<path d="M24.5 40.9984C30.8159 40.3339 37.1841 40.3339 43.5 40.9984" stroke="black" stroke-width="2" stroke-linecap="round" stroke-linejoin="round"/>
</svg>
