<svg width="75" height="70" viewBox="0 0 75 70" fill="none" xmlns="http://www.w3.org/2000/svg">
<circle cx="52.5" cy="22.5" r="22.5" fill="#FF5353"/>
<path d="M30 40V11.5" stroke="black" stroke-width="2" stroke-linecap="round" stroke-linejoin="round"/>
<path d="M54.6817 25.75L5.31827 54.25" stroke="black" stroke-width="2" stroke-linecap="round" stroke-linejoin="round"/>
<path d="M1.97519 45.2103C0.741239 38.5324 1.92846 31.6334 5.32366 25.7521C8.71885 19.8709 14.0996 15.3927 20.4996 13.1218V34.5153L1.97519 45.2103Z" stroke="black" stroke-width="2" stroke-linecap="round" stroke-linejoin="round"/>
<path d="M30 11.5C34.9933 11.5009 39.8986 12.8137 44.2249 15.3068C48.5512 17.8 52.1466 21.386 54.6509 25.7058C57.1553 30.0256 58.4808 34.9276 58.4946 39.9208C58.5085 44.9141 57.2103 49.8233 54.73 54.157C52.2496 58.4906 48.6743 62.0966 44.3619 64.6137C40.0495 67.1309 35.1515 68.4709 30.1584 68.4995C25.1652 68.5282 20.2521 67.2445 15.9111 64.777C11.5702 62.3096 7.95362 58.7449 5.42371 54.44" stroke="black" stroke-width="2" stroke-linecap="round" stroke-linejoin="round"/>
</svg>
