<svg width="75" height="62" viewBox="0 0 75 62" fill="none" xmlns="http://www.w3.org/2000/svg">
<circle cx="22.5" cy="23.5" r="22.5" fill="#7553FF"/>
<path d="M44.3095 50.6237L59.2826 60.11C61.1965 61.3226 63.5728 59.5192 63.0048 57.285L58.6788 40.2674C58.557 39.7935 58.5714 39.2947 58.7204 38.8286C58.8694 38.3624 59.147 37.9478 59.5212 37.6324L72.9481 26.457C74.7123 24.9886 73.8017 22.0607 71.535 21.9136L54.0004 20.7756C53.5281 20.7418 53.0752 20.5746 52.6942 20.2934C52.3133 20.0122 52.0201 19.6285 51.8487 19.1871L45.3091 2.71856C45.1313 2.25004 44.8152 1.84669 44.4028 1.56206C43.9904 1.27744 43.5011 1.125 43 1.125C42.4989 1.125 42.0097 1.27744 41.5972 1.56206C41.1848 1.84669 40.8687 2.25004 40.691 2.71856L34.1513 19.1871C33.98 19.6285 33.6867 20.0122 33.3058 20.2934C32.9249 20.5746 32.4719 20.7418 31.9996 20.7756L14.465 21.9136C12.1983 22.0607 11.2877 24.9886 13.052 26.457L26.4788 37.6324C26.853 37.9478 27.1306 38.3624 27.2796 38.8286C27.4286 39.2947 27.443 39.7935 27.3212 40.2674L23.3093 56.0494C22.6278 58.7303 25.4793 60.8945 27.776 59.4394L41.6905 50.6237C42.0818 50.3746 42.5361 50.2423 43 50.2423C43.4639 50.2423 43.9182 50.3746 44.3095 50.6237V50.6237Z" stroke="black" stroke-width="2" stroke-linecap="round" stroke-linejoin="round"/>
</svg>
